<?xml version="1.0" encoding="utf-8"?>
<!-- Generator: Adobe Illustrator 25.4.1, SVG Export Plug-In . SVG Version: 6.00 Build 0)  -->
<svg version="1.1" id="Layer_1" xmlns:ev="http://www.w3.org/2001/xml-events"
	 xmlns="http://www.w3.org/2000/svg" xmlns:xlink="http://www.w3.org/1999/xlink" x="0px" y="0px" viewBox="0 0 296 296"
	 style="enable-background:new 0 0 296 296;" xml:space="preserve">
<style type="text/css">
	.st0{fill:#FFFFFF;}
</style>
<g>
	<g>
		<path class="st0" d="M0,0v71.4h71.5V0H0z M61.2,61.2h-51v-51h51V61.2z"/>
	</g>
	<g>
		<polygon class="st0" points="40.8,81.7 40.8,91.9 30.6,91.9 30.6,112.3 0,112.3 0,91.9 10.2,91.9 10.2,81.7 		"/>
	</g>
	<g>
		<polygon class="st0" points="40.8,204.1 40.8,214.3 20.4,214.3 20.4,204.1 10.2,204.1 10.2,214.3 0,214.3 0,193.9 10.2,193.9 
			10.2,183.7 0,183.7 0,163.3 10.2,163.3 10.2,173.5 20.4,173.5 20.4,193.9 30.6,193.9 30.6,204.1 		"/>
	</g>
	<g>
		<path class="st0" d="M0,224.6V296h71.5v-71.5H0z M61.2,285.8h-51v-51h51V285.8z"/>
	</g>
	<g>
		<rect id="p_00000050632337972340261780000013830081141884289667_" x="10.2" y="153.1" class="st0" width="10.2" height="10.2"/>
	</g>
	<g>
		<rect x="20.4" y="20.4" class="st0" width="30.6" height="30.6"/>
	</g>
	<g>
		<rect x="20.4" y="122.5" class="st0" width="10.2" height="20.4"/>
	</g>
	<g>
		<rect id="p_00000179605354490349567260000007585219838090184877_" x="20.4" y="163.3" class="st0" width="10.2" height="10.2"/>
	</g>
	<g>
		<rect x="20.4" y="245" class="st0" width="30.6" height="30.6"/>
	</g>
	<g>
		<rect id="p_00000177481966175114849070000012857411529086457492_" x="30.6" y="112.3" class="st0" width="10.2" height="10.2"/>
	</g>
	<g>
		<polygon class="st0" points="71.5,81.7 71.5,91.9 61.2,91.9 61.2,102.1 51,102.1 51,112.3 40.8,112.3 40.8,91.9 51,91.9 51,81.7 
					"/>
	</g>
	<g>
		<rect id="p_00000044879346485356404050000009994931581583974798_" x="51" y="132.7" class="st0" width="10.2" height="10.2"/>
	</g>
	<g>
		<rect x="61.2" y="102.1" class="st0" width="20.4" height="10.2"/>
	</g>
	<g>
		<rect id="p_00000011001926137187456930000016316518972903205020_" x="61.2" y="122.5" class="st0" width="10.2" height="10.2"/>
	</g>
	<g>
		<polygon class="st0" points="71.5,183.7 71.5,193.9 51,193.9 51,204.1 40.8,204.1 40.8,193.9 30.6,193.9 30.6,173.5 40.8,173.5 
			40.8,183.7 		"/>
	</g>
	<g>
		<rect x="51" y="204.1" class="st0" width="30.6" height="10.2"/>
	</g>
	<g>
		<polygon class="st0" points="102.1,20.4 102.1,30.6 81.7,30.6 81.7,10.2 91.9,10.2 91.9,20.4 		"/>
	</g>
	<g>
		<rect id="p_00000101063749740346556920000005071882538107943043_" x="81.7" y="61.2" class="st0" width="10.2" height="10.2"/>
	</g>
	<g>
		<rect id="p_00000135679306549026798210000014313977430698007961_" x="81.7" y="193.9" class="st0" width="10.2" height="10.2"/>
	</g>
	<g>
		<polygon class="st0" points="142.9,255.2 142.9,265.4 112.3,265.4 112.3,234.8 122.5,234.8 122.5,224.6 112.3,224.6 112.3,214.3 
			102.1,214.3 102.1,224.6 112.3,224.6 112.3,234.8 102.1,234.8 102.1,265.4 91.9,265.4 91.9,285.8 81.7,285.8 81.7,255.2 
			91.9,255.2 91.9,245 81.7,245 81.7,234.8 91.9,234.8 91.9,224.6 81.7,224.6 81.7,214.3 91.9,214.3 91.9,204.1 102.1,204.1 
			102.1,183.7 91.9,183.7 91.9,173.5 112.3,173.5 112.3,163.3 122.5,163.3 122.5,183.7 112.3,183.7 112.3,193.9 122.5,193.9 
			122.5,214.3 132.7,214.3 132.7,245 122.5,245 122.5,255.2 		"/>
	</g>
	<g>
		<rect id="p_00000084494897681409150130000005097976909812754072_" x="91.9" y="0" class="st0" width="10.2" height="10.2"/>
	</g>
	<g>
		<path class="st0" d="M183.7,51V30.6h-40.8V10.2h30.6V0h-40.8v20.4h-10.2v10.2h-20.4v10.2H91.9v20.4h10.2v10.2h10.2V61.2h10.2v30.6
			h10.2V81.7h20.4v10.2h10.2v10.2h10.2V81.7h-10.2V71.4h-10.2V51H183.7z M142.9,71.4h-10.2V51h-10.2V40.8h20.4V71.4z"/>
	</g>
	<g>
		<rect id="p_00000152244206141855048570000000766945552405182872_" x="91.9" y="102.1" class="st0" width="10.2" height="10.2"/>
	</g>
	<g>
		<rect id="p_00000036252121281599504210000009936836553408551069_" x="102.1" y="10.2" class="st0" width="10.2" height="10.2"/>
	</g>
	<g>
		<rect id="p_00000144309963985539014360000010979210825441798325_" x="102.1" y="81.7" class="st0" width="10.2" height="10.2"/>
	</g>
	<g>
		<rect id="p_00000078012349212466649540000018068522974538722689_" x="102.1" y="275.6" class="st0" width="10.2" height="10.2"/>
	</g>
	<g>
		<rect id="p_00000090275644047477889510000006275182008372183190_" x="112.3" y="0" class="st0" width="10.2" height="10.2"/>
	</g>
	<g>
		<rect id="p_00000145762546261076515580000014819189735207097998_" x="112.3" y="91.9" class="st0" width="10.2" height="10.2"/>
	</g>
	<g>
		<polygon class="st0" points="173.5,112.3 173.5,122.5 153.1,122.5 153.1,132.7 142.9,132.7 142.9,122.5 112.3,122.5 112.3,112.3 
			122.5,112.3 122.5,102.1 153.1,102.1 153.1,112.3 		"/>
	</g>
	<g>
		<rect id="p_00000137830701143926318840000000221932905453498811_" x="132.7" y="132.7" class="st0" width="10.2" height="10.2"/>
	</g>
	<g>
		<polygon class="st0" points="153.1,193.9 153.1,204.1 142.9,204.1 142.9,214.3 132.7,214.3 132.7,193.9 122.5,193.9 122.5,183.7 
			142.9,183.7 142.9,193.9 		"/>
	</g>
	<g>
		<polygon class="st0" points="193.9,204.1 193.9,224.6 183.7,224.6 183.7,214.3 173.5,214.3 173.5,224.6 183.7,224.6 183.7,234.8 
			173.5,234.8 173.5,245 163.3,245 163.3,255.2 153.1,255.2 153.1,245 142.9,245 142.9,224.6 153.1,224.6 153.1,234.8 163.3,234.8 
			163.3,204.1 173.5,204.1 173.5,193.9 183.7,193.9 183.7,204.1 		"/>
	</g>
	<g>
		<rect x="153.1" y="132.7" class="st0" width="20.4" height="10.2"/>
	</g>
	<g>
		<polygon class="st0" points="224.5,163.3 224.5,173.5 204.1,173.5 204.1,163.3 193.9,163.3 193.9,173.5 183.7,173.5 183.7,183.7 
			173.5,183.7 173.5,193.9 153.1,193.9 153.1,183.7 163.3,183.7 163.3,173.5 153.1,173.5 153.1,183.7 142.9,183.7 142.9,173.5 
			132.7,173.5 132.7,163.3 122.5,163.3 122.5,153.1 91.9,153.1 91.9,173.5 40.8,173.5 40.8,163.3 71.5,163.3 71.5,153.1 61.2,153.1 
			61.2,142.9 81.7,142.9 81.7,132.7 91.9,132.7 91.9,142.9 102.1,142.9 102.1,122.5 112.3,122.5 112.3,132.7 122.5,132.7 
			122.5,142.9 132.7,142.9 132.7,153.1 153.1,153.1 153.1,163.3 173.5,163.3 173.5,142.9 193.9,142.9 193.9,122.5 204.1,122.5 
			204.1,142.9 214.3,142.9 214.3,163.3 		"/>
	</g>
	<g>
		<polygon class="st0" points="204.1,255.2 204.1,265.4 193.9,265.4 193.9,275.6 183.7,275.6 183.7,265.4 173.5,265.4 173.5,285.8 
			163.3,285.8 163.3,275.6 153.1,275.6 153.1,265.4 163.3,265.4 163.3,255.2 183.7,255.2 183.7,234.8 193.9,234.8 193.9,255.2 		"/>
	</g>
	<g>
		<polygon class="st0" points="163.3,285.8 163.3,296 132.7,296 132.7,285.8 142.9,285.8 142.9,275.6 153.1,275.6 153.1,285.8 		"/>
	</g>
	<g>
		<rect id="p_00000176026708712040357260000003437590613614143621_" x="163.3" y="61.2" class="st0" width="10.2" height="10.2"/>
	</g>
	<g>
		<polygon class="st0" points="193.9,61.2 193.9,81.7 173.5,81.7 173.5,71.4 183.7,71.4 183.7,61.2 		"/>
	</g>
	<g>
		<rect id="p_00000109749014813957700670000000626160374790611584_" x="173.5" y="122.5" class="st0" width="10.2" height="10.2"/>
	</g>
	<g>
		<rect id="p_00000127033936395147648440000014264522006364567181_" x="183.7" y="112.3" class="st0" width="10.2" height="10.2"/>
	</g>
	<g>
		<rect id="p_00000057135293294133355040000017315600676025894074_" x="183.7" y="183.7" class="st0" width="10.2" height="10.2"/>
	</g>
	<g>
		<rect id="p_00000169528629817502771620000015196857567112353185_" x="193.9" y="81.7" class="st0" width="10.2" height="10.2"/>
	</g>
	<g>
		<polygon class="st0" points="214.3,0 214.3,40.8 204.1,40.8 204.1,51 214.3,51 214.3,71.4 204.1,71.4 204.1,61.2 193.9,61.2 
			193.9,30.6 204.1,30.6 204.1,20.4 173.5,20.4 173.5,10.2 183.7,10.2 183.7,0 193.9,0 193.9,10.2 204.1,10.2 204.1,0 		"/>
	</g>
	<g>
		<rect id="p_00000035517973397714862030000008787117194602421151_" x="204.1" y="112.3" class="st0" width="10.2" height="10.2"/>
	</g>
	<g>
		<rect id="p_00000172403916608869439730000009182915927055293075_" x="204.1" y="183.7" class="st0" width="10.2" height="10.2"/>
	</g>
	<g>
		<rect id="p_00000066495477056667303580000000914137022644372625_" x="214.3" y="122.5" class="st0" width="10.2" height="10.2"/>
	</g>
	<g>
		<path class="st0" d="M224.5,0v71.4H296V0H224.5z M285.8,61.2h-51v-51h51V61.2z"/>
	</g>
	<g>
		<rect id="p_00000165951808502600511400000000693195790943879811_" x="224.6" y="224.6" class="st0" width="10.2" height="10.2"/>
	</g>
	<g>
		<polygon class="st0" points="245,285.8 245,296 183.7,296 183.7,285.8 204.1,285.8 204.1,265.4 214.3,265.4 214.3,285.8 
			224.5,285.8 224.5,275.6 234.8,275.6 234.8,285.8 		"/>
	</g>
	<g>
		<rect id="p_00000031899512701077556740000007739289395687951540_" x="234.8" y="265.4" class="st0" width="10.2" height="10.2"/>
	</g>
	<g>
		<rect x="245" y="20.4" class="st0" width="30.6" height="30.6"/>
	</g>
	<g>
		<rect x="245" y="275.6" class="st0" width="20.4" height="10.2"/>
	</g>
	<g>
		<path class="st0" d="M296,224.6v-10.2h-20.4v10.2h-10.2v10.2h10.2V245h-20.4v-20.4h10.2v-10.2h10.2v-20.4h-10.2v-10.2h-10.2v10.2
			H245v-10.2h-20.4v10.2h-10.2v10.2h-10.2v20.4h-10.2v10.2h10.2v20.4H245v10.2h10.2v-10.2h10.2v20.4h10.2v-10.2h10.2v-10.2H296V245
			h-10.2v-20.4H296z M245,245h-30.6v-30.6H245V245z"/>
	</g>
	<g>
		<polygon class="st0" points="275.6,91.9 275.6,102.1 285.8,102.1 285.8,112.3 265.4,112.3 265.4,81.7 285.8,81.7 285.8,91.9 		"/>
	</g>
	<g>
		<rect x="275.6" y="275.6" class="st0" width="10.2" height="20.4"/>
	</g>
	<g>
		<rect id="p_00000010296784797423681230000002552208305859972230_" x="285.8" y="91.9" class="st0" width="10.2" height="10.2"/>
	</g>
	<g>
		<polygon class="st0" points="296,112.3 296,163.3 285.8,163.3 285.8,153.1 275.6,153.1 275.6,142.9 285.8,142.9 285.8,132.7 
			275.6,132.7 275.6,142.9 265.4,142.9 265.4,173.5 234.8,173.5 234.8,163.3 245,163.3 245,153.1 234.8,153.1 234.8,163.3 
			224.5,163.3 224.5,132.7 234.8,132.7 234.8,112.3 224.5,112.3 224.5,102.1 214.3,102.1 214.3,91.9 255.2,91.9 255.2,122.5 
			245,122.5 245,142.9 255.2,142.9 255.2,132.7 265.4,132.7 265.4,122.5 285.8,122.5 285.8,112.3 		"/>
	</g>
	<g>
		<rect id="p_00000070815412536211820570000014832541163386868410_" x="285.8" y="193.9" class="st0" width="10.2" height="10.2"/>
	</g>
	<g>
		<rect id="p_00000043431820956190678220000015489442914803526590_" x="285.8" y="265.4" class="st0" width="10.2" height="10.2"/>
	</g>
</g>
</svg>
